<svg width="20" height="20" viewBox="0 0 20 20" fill="none" xmlns="http://www.w3.org/2000/svg">
<g clip-path="url(#clip0_13760_4577)">
<path d="M19.9996 10.0001C19.9996 8.77688 19.7796 7.60512 19.3776 6.52184L9.99963 6.08704L0.621626 6.5218C0.219673 7.60512 -0.000366211 8.77688 -0.000366211 10.0001C-0.000366211 11.2233 0.219673 12.395 0.621626 13.4783L9.99963 13.9131L19.3776 13.4784C19.7796 12.395 19.9996 11.2233 19.9996 10.0001Z" fill="#D80027"/>
<path d="M10.0003 19.9997C14.3 19.9997 17.9654 17.2859 19.3783 13.4779H0.622314C2.03524 17.2859 5.70067 19.9997 10.0003 19.9997Z" fill="#6DA544"/>
<path d="M0.622314 6.52103H19.3784C17.9654 2.71302 14.3 -0.000732422 10.0003 -0.000732422C5.70067 -0.000732422 2.03524 2.71302 0.622314 6.52103Z" fill="#338AF3"/>
<path d="M10.217 12.8259C8.65627 12.8259 7.39096 11.5605 7.39096 9.99977C7.39096 8.43898 8.65627 7.17367 10.217 7.17367C10.7037 7.17367 11.1616 7.29672 11.5614 7.51336C10.9342 6.90004 10.0765 6.52148 9.13009 6.52148C7.20908 6.52148 5.65186 8.07875 5.65186 9.99973C5.65186 11.9207 7.20912 13.478 9.13009 13.478C10.0766 13.478 10.9342 13.0994 11.5614 12.4861C11.1616 12.7028 10.7037 12.8259 10.217 12.8259Z" fill="#F0F0F0"/>
<path d="M12.3912 8.04236L12.7656 9.09513L13.7747 8.61537L13.295 9.62451L14.3477 9.99888L13.295 10.3733L13.7747 11.3824L12.7656 10.9026L12.3912 11.9554L12.0169 10.9026L11.0077 11.3824L11.4875 10.3733L10.4347 9.99888L11.4875 9.62451L11.0077 8.61537L12.0169 9.09513L12.3912 8.04236Z" fill="#F0F0F0"/>
</g>
<defs>
<clipPath id="clip0_13760_4577">
<rect width="20" height="20" fill="white"/>
</clipPath>
</defs>
</svg>
