<svg width="204" height="64" viewBox="0 0 204 64" fill="none" xmlns="http://www.w3.org/2000/svg">
<path d="M27.6363 54.9652L10.8786 53.6194C7.422 53.3429 4.29721 50.9739 3.91929 48.3653L1.18164 29.0912L19.0639 30.5291C21.903 30.7596 24.4655 32.6953 24.7696 34.843L27.6271 54.9652H27.6363Z" fill="#B3BAFF"/>
<path d="M10.6689 29.3635L12.0147 12.6058C12.2913 9.14917 14.6602 6.02438 17.2688 5.64646L36.5429 2.90881L35.105 20.7911C34.8745 23.6301 32.9388 26.1926 30.7911 26.4968L10.6689 29.3543V29.3635Z" fill="#4B47FF"/>
<path d="M36.8184 10.5781L53.5761 11.9239C57.0327 12.2004 60.1575 14.5694 60.5354 17.178L63.2731 36.4521L45.3908 35.0142C42.5518 34.7837 39.9892 32.848 39.6851 30.7003L36.8276 10.5781H36.8184Z" fill="#B3BAFF"/>
<path d="M53.5034 36.3639L52.1576 53.1216C51.8811 56.5782 49.5121 59.703 46.9035 60.0809L27.6294 62.8186L29.0674 44.9363C29.2978 42.0973 31.2335 39.5348 33.3812 39.2306L53.5034 36.3731V36.3639Z" fill="#4B47FF"/>
<path d="M83.5074 35.0708C81.6352 35.0708 80.1202 34.6028 78.9624 33.6667C77.8293 32.706 77.2627 31.4373 77.2627 29.8607V28.5305C77.2627 26.9786 77.8539 25.7346 79.0363 24.7985C80.2434 23.8624 81.82 23.3944 83.766 23.3944H86.057C86.7467 23.3944 87.4857 23.4929 88.274 23.69C89.0623 23.887 89.7644 24.1457 90.3802 24.4659V22.175C90.3802 21.4113 90.1339 20.7955 89.6412 20.3275C89.1485 19.8594 88.508 19.6254 87.7198 19.6254H84.6159C83.803 19.6254 83.1502 19.8225 82.6575 20.2166C82.1648 20.5861 81.9185 21.0788 81.9185 21.6946H77.78C77.78 19.9949 78.4082 18.6277 79.6645 17.5931C80.9208 16.5585 82.5713 16.0412 84.6159 16.0412H87.7198C89.789 16.0412 91.4518 16.6077 92.7081 17.7409C93.9644 18.8494 94.5926 20.3275 94.5926 22.175V34.7752H90.6389V32.4473C90.0477 33.2356 89.3086 33.8761 88.4218 34.3687C87.535 34.8368 86.6605 35.0708 85.7983 35.0708H83.5074ZM86.057 31.7452C87.0423 31.7452 87.9291 31.4743 88.7174 30.9323C89.5057 30.3657 90.06 29.6267 90.3802 28.7153V27.8285C89.9614 27.4836 89.3702 27.2126 88.6066 27.0155C87.8429 26.7938 87.0423 26.683 86.2048 26.683H83.8769C83.1379 26.683 82.5343 26.8677 82.0663 27.2372C81.6229 27.6068 81.4012 28.0871 81.4012 28.6783V29.7129C81.4012 30.3288 81.6352 30.8215 82.1032 31.191C82.5713 31.5605 83.1871 31.7452 83.9508 31.7452H86.057Z" fill="white"/>
<path d="M97.0438 32.706L107.353 19.921H97.4872V16.3368H113.413V18.406L103.104 31.191H113.228V34.7752H97.0438V32.706Z" fill="white"/>
<path d="M124.1 34.7752C122.006 34.7752 120.478 34.3072 119.518 33.3711C118.557 32.435 118.077 30.957 118.077 28.937V19.9949H114.825V16.3368H118.187V10.7572H122.326V16.3368H127.129V19.9949H122.326V28.7892C122.326 29.6021 122.486 30.1933 122.806 30.5628C123.126 30.9323 123.631 31.1171 124.321 31.1171H127.129V34.7752H124.1Z" fill="white"/>
<path d="M137.023 35.0708C135.52 35.0708 134.19 34.7875 133.032 34.2209C131.899 33.6544 131.012 32.8538 130.372 31.8191C129.756 30.7845 129.448 29.5898 129.448 28.2349V23.2835C129.448 21.8548 129.756 20.5984 130.372 19.5145C131.012 18.406 131.899 17.5561 133.032 16.9649C134.19 16.3491 135.52 16.0412 137.023 16.0412H139.979C142.22 16.0412 144.019 16.694 145.374 17.9996C146.728 19.3051 147.406 21.0418 147.406 23.2096V26.9047H133.697V28.2349C133.697 29.2203 133.993 30.0086 134.584 30.5998C135.2 31.191 136.013 31.4866 137.023 31.4866H139.868C140.853 31.4866 141.642 31.2526 142.233 30.7845C142.849 30.2918 143.157 29.6514 143.157 28.8631H147.332C147.332 30.7353 146.642 32.2379 145.263 33.3711C143.883 34.5042 142.073 35.0708 139.831 35.0708H137.023ZM143.23 23.7269V23.2096C143.23 22.1257 142.935 21.2512 142.344 20.5861C141.752 19.921 140.976 19.5884 140.016 19.5884H137.023C136.013 19.5884 135.188 19.9456 134.547 20.66C133.931 21.3498 133.623 22.2612 133.623 23.3944V23.7269H143.23Z" fill="white"/>
<path d="M156.804 34.7752C154.735 34.7752 153.22 34.3441 152.259 33.4819C151.323 32.5951 150.855 31.2033 150.855 29.3065V8.90967H155.104V29.1217C155.104 29.8361 155.252 30.3534 155.548 30.6737C155.843 30.9693 156.336 31.1171 157.026 31.1171H158.799V34.7752H156.804Z" fill="white"/>
<path d="M167.856 35.0708C165.59 35.0708 163.767 34.418 162.387 33.1124C161.033 31.8068 160.355 30.0825 160.355 27.9393V23.2835C160.355 21.8548 160.663 20.5984 161.279 19.5145C161.895 18.406 162.769 17.5561 163.902 16.9649C165.036 16.3491 166.341 16.0412 167.819 16.0412H170.775C172.894 16.0412 174.593 16.657 175.874 17.8887C177.18 19.0958 177.833 20.697 177.833 22.6923H173.657C173.657 21.8055 173.386 21.0911 172.844 20.5492C172.327 19.9826 171.637 19.6993 170.775 19.6993H167.856C166.895 19.6993 166.107 20.0565 165.491 20.7709C164.9 21.4852 164.604 22.409 164.604 23.5422V27.6807C164.604 28.7892 164.9 29.6883 165.491 30.3781C166.107 31.0678 166.908 31.4127 167.893 31.4127H170.812C171.724 31.4127 172.45 31.0801 172.992 30.415C173.559 29.7499 173.842 28.8877 173.842 27.8285H178.018C178.018 29.9962 177.352 31.7452 176.022 33.0755C174.717 34.4057 172.98 35.0708 170.812 35.0708H167.856Z" fill="white"/>
<path d="M187.911 35.0708C185.645 35.0708 183.822 34.418 182.443 33.1124C181.063 31.7822 180.373 30.0332 180.373 27.8654V23.2835C180.373 21.8548 180.681 20.5984 181.297 19.5145C181.938 18.406 182.825 17.5561 183.958 16.9649C185.116 16.3491 186.446 16.0412 187.948 16.0412H191.2C192.703 16.0412 194.021 16.3491 195.154 16.9649C196.312 17.5561 197.198 18.406 197.814 19.5145C198.455 20.5984 198.775 21.8548 198.775 23.2835V27.8654C198.775 30.0332 198.073 31.7822 196.669 33.1124C195.289 34.418 193.442 35.0708 191.126 35.0708H187.911ZM191.089 31.4127C192.124 31.4127 192.949 31.0678 193.565 30.3781C194.205 29.6637 194.526 28.7399 194.526 27.6068V23.5052C194.526 22.3721 194.218 21.4606 193.602 20.7709C192.986 20.0565 192.161 19.6993 191.126 19.6993H188.022C186.988 19.6993 186.162 20.0565 185.547 20.7709C184.931 21.4606 184.623 22.3721 184.623 23.5052V27.6068C184.623 28.7399 184.931 29.6637 185.547 30.3781C186.162 31.0678 186.963 31.4127 187.948 31.4127H191.089Z" fill="white"/>
<path d="M80.6752 50.8822C80.1515 50.8822 79.7191 50.7394 79.378 50.4537C79.0368 50.1761 78.8464 49.8071 78.8067 49.347H79.6636C79.6953 49.585 79.8024 49.7754 79.9849 49.9182C80.1753 50.069 80.4054 50.1443 80.6752 50.1443H81.6629C82.0755 50.1443 82.3929 50.0055 82.615 49.7278C82.8451 49.458 82.9601 49.0772 82.9601 48.5853V47.669C82.7856 47.907 82.5555 48.1013 82.2699 48.2521C81.9922 48.3949 81.7224 48.4663 81.4606 48.4663H80.5919C80.1872 48.4663 79.8262 48.3711 79.5089 48.1807C79.1915 47.9903 78.9456 47.7245 78.771 47.3833C78.5965 47.0422 78.5092 46.6455 78.5092 46.1933V44.8009C78.5092 44.0947 78.7115 43.5235 79.1162 43.0871C79.5287 42.6508 80.0682 42.4326 80.7347 42.4326H81.5677C81.8216 42.4326 82.0834 42.504 82.3532 42.6468C82.6229 42.7896 82.8332 42.9721 82.9839 43.1942V42.5278H83.817V48.5853C83.817 49.3073 83.6266 49.8706 83.2457 50.2752C82.8649 50.6799 82.3373 50.8822 81.6629 50.8822H80.6752ZM81.4606 47.7047C81.8573 47.7047 82.1945 47.5499 82.4722 47.2405C82.7578 46.9232 82.9205 46.5225 82.9601 46.0385V44.5747C82.9284 44.1701 82.7776 43.8409 82.5079 43.587C82.2461 43.3252 81.9327 43.1942 81.5677 43.1942H80.7585C80.338 43.1942 80.0008 43.341 79.7469 43.6346C79.493 43.9281 79.3661 44.3169 79.3661 44.8009V46.1933C79.3661 46.6375 79.4811 47.0025 79.7112 47.2881C79.9492 47.5658 80.2507 47.7047 80.6157 47.7047H81.4606ZM85.1514 42.5278H85.9844V43.4442C86.1431 43.1665 86.3811 42.9404 86.6985 42.7658C87.0238 42.5913 87.361 42.504 87.71 42.504H88.2337V43.2775H87.71C87.2023 43.2775 86.7897 43.4402 86.4724 43.7655C86.1629 44.0828 86.0082 44.5073 86.0082 45.0389V48.4663H85.1514V42.5278ZM90.6953 48.5615C90.0288 48.5615 89.4933 48.3552 89.0887 47.9427C88.6841 47.5301 88.4817 46.9866 88.4817 46.3123V44.6818C88.4817 44.0075 88.6841 43.464 89.0887 43.0514C89.5012 42.6389 90.0447 42.4326 90.7191 42.4326H91.695C92.3693 42.4326 92.9088 42.6389 93.3135 43.0514C93.726 43.464 93.9323 44.0075 93.9323 44.6818V46.3123C93.9323 46.9866 93.726 47.5301 93.3135 47.9427C92.9009 48.3552 92.3535 48.5615 91.6712 48.5615H90.6953ZM91.6712 47.7999C92.0996 47.7999 92.4407 47.665 92.6946 47.3952C92.9485 47.1175 93.0755 46.7566 93.0755 46.3123V44.6818C93.0755 44.2375 92.9485 43.8805 92.6946 43.6108C92.4407 43.3331 92.1075 43.1942 91.695 43.1942H90.7191C90.3065 43.1942 89.9733 43.3331 89.7194 43.6108C89.4655 43.8805 89.3386 44.2375 89.3386 44.6818V46.3123C89.3386 46.7645 89.4616 47.1255 89.7075 47.3952C89.9535 47.665 90.2827 47.7999 90.6953 47.7999H91.6712ZM96.8041 48.5615C96.2567 48.5615 95.8124 48.3751 95.4712 48.0022C95.1301 47.6293 94.9595 47.1413 94.9595 46.5384V42.5278H95.8164V46.5622C95.8164 46.9351 95.9076 47.2366 96.0901 47.4666C96.2726 47.6888 96.5106 47.7999 96.8041 47.7999H97.542C97.9069 47.7999 98.2441 47.6531 98.5536 47.3595C98.863 47.066 99.0613 46.6971 99.1486 46.2528V42.5278H100.005V48.4663H99.1724V47.5618C98.9899 47.8475 98.7479 48.0855 98.4464 48.2759C98.145 48.4663 97.8514 48.5615 97.5658 48.5615H96.8041ZM101.342 42.5278H102.175V43.3371C102.342 43.0673 102.56 42.8491 102.83 42.6825C103.107 42.5159 103.385 42.4326 103.663 42.4326H104.52C105.154 42.4326 105.666 42.6349 106.055 43.0395C106.451 43.4442 106.65 43.9797 106.65 44.6461V46.1099C106.65 46.8478 106.448 47.4428 106.043 47.8951C105.646 48.3394 105.119 48.5615 104.46 48.5615H103.603C103.357 48.5615 103.099 48.4941 102.83 48.3592C102.56 48.2164 102.35 48.0339 102.199 47.8118V50.8346H101.342V42.5278ZM104.436 47.7999C104.849 47.7999 105.178 47.6452 105.424 47.3357C105.67 47.0263 105.793 46.6177 105.793 46.1099V44.6461C105.793 44.2098 105.674 43.8607 105.436 43.5989C105.198 43.3291 104.885 43.1942 104.496 43.1942H103.663C103.33 43.1942 103.028 43.3252 102.758 43.587C102.489 43.8409 102.302 44.1701 102.199 44.5747V46.3599C102.254 46.7804 102.417 47.1255 102.687 47.3952C102.957 47.665 103.278 47.7999 103.651 47.7999H104.436Z" fill="white"/>
</svg>
