<svg width="48" height="48" viewBox="0 0 48 48" fill="none" xmlns="http://www.w3.org/2000/svg">
<rect width="48" height="48" rx="8" fill="#4936F5"/>
<g clip-path="url(#clip0_13803_2418)">
<path d="M21.639 35.0362L13.5858 34.3895C11.9247 34.2566 10.423 33.1182 10.2414 31.8646L8.92578 22.6021L17.5194 23.2931C18.8838 23.4038 20.1152 24.3341 20.2614 25.3662L21.6346 35.0362H21.639Z" fill="#B3BAFF"/>
<path d="M13.4844 22.7332L14.1311 14.68C14.264 13.0188 15.4024 11.5171 16.656 11.3355L25.9186 10.0199L25.2275 18.6135C25.1168 19.9779 24.1866 21.2093 23.1544 21.3555L13.4844 22.7287V22.7332Z" fill="white"/>
<path d="M26.0508 13.7053L34.104 14.3521C35.7651 14.485 37.2668 15.6234 37.4484 16.877L38.764 26.1395L30.1704 25.4485C28.8061 25.3377 27.5746 24.4075 27.4284 23.3754L26.0552 13.7053H26.0508Z" fill="#B3BAFF"/>
<path d="M34.069 26.0969L33.4222 34.1501C33.2893 35.8113 32.1509 37.3129 30.8973 37.4946L21.6348 38.8102L22.3258 30.2166C22.4365 28.8522 23.3668 27.6207 24.3989 27.4746L34.069 26.1014V26.0969Z" fill="white"/>
</g>
<defs>
<clipPath id="clip0_13803_2418">
<rect width="30.7563" height="30.7563" fill="white" transform="translate(8.57617 8.62183)"/>
</clipPath>
</defs>
</svg>
