<svg width="65" height="64" viewBox="0 0 65 64" fill="none" xmlns="http://www.w3.org/2000/svg">
<rect x="0.333252" width="64" height="64" rx="12" fill="#4B47FF"/>
<path d="M26.3333 30.6667H22.4667C21.7199 30.6667 21.3466 30.6667 21.0613 30.812C20.8105 30.9398 20.6065 31.1438 20.4787 31.3947C20.3333 31.6799 20.3333 32.0533 20.3333 32.8V44M38.3333 30.6667H42.2C42.9467 30.6667 43.3201 30.6667 43.6053 30.812C43.8562 30.9398 44.0602 31.1438 44.188 31.3947C44.3333 31.6799 44.3333 32.0533 44.3333 32.8V44M38.3333 44V24.2667C38.3333 22.7732 38.3333 22.0265 38.0427 21.456C37.787 20.9543 37.3791 20.5463 36.8773 20.2906C36.3069 20 35.5601 20 34.0667 20H30.6C29.1065 20 28.3598 20 27.7894 20.2906C27.2876 20.5463 26.8796 20.9543 26.624 21.456C26.3333 22.0265 26.3333 22.7732 26.3333 24.2667V44M45.6667 44H19M31 25.3333H33.6667M31 30.6667H33.6667M31 36H33.6667" stroke="white" stroke-width="2" stroke-linecap="round" stroke-linejoin="round"/>
</svg>
