<svg width="28" height="28" viewBox="0 0 28 28" fill="none" xmlns="http://www.w3.org/2000/svg">
<path d="M25.0839 21L17.334 14M10.6673 14L2.91736 21M2.33398 8.16669L11.8597 14.8347C12.6311 15.3747 13.0168 15.6446 13.4363 15.7492C13.8069 15.8416 14.1944 15.8416 14.565 15.7492C14.9845 15.6446 15.3702 15.3747 16.1416 14.8347L25.6673 8.16669M7.93398 23.3334H20.0673C22.0275 23.3334 23.0076 23.3334 23.7563 22.9519C24.4149 22.6163 24.9503 22.0809 25.2858 21.4223C25.6673 20.6736 25.6673 19.6935 25.6673 17.7334V10.2667C25.6673 8.3065 25.6673 7.32641 25.2858 6.57772C24.9503 5.91915 24.4149 5.38372 23.7563 5.04816C23.0076 4.66669 22.0275 4.66669 20.0673 4.66669H7.93398C5.9738 4.66669 4.99371 4.66669 4.24502 5.04816C3.58645 5.38372 3.05102 5.91915 2.71546 6.57772C2.33398 7.32641 2.33398 8.3065 2.33398 10.2667V17.7334C2.33398 19.6935 2.33398 20.6736 2.71546 21.4223C3.05102 22.0809 3.58645 22.6163 4.24502 22.9519C4.99371 23.3334 5.9738 23.3334 7.93398 23.3334Z" stroke="#4B47FF" stroke-width="2" stroke-linecap="round" stroke-linejoin="round"/>
</svg>
