<svg width="65" height="64" viewBox="0 0 65 64" fill="none" xmlns="http://www.w3.org/2000/svg">
<rect x="0.666504" width="64" height="64" rx="12" fill="#4B47FF"/>
<path d="M33.9999 22.6667C33.9999 24.1394 30.7167 25.3333 26.6666 25.3333C22.6165 25.3333 19.3333 24.1394 19.3333 22.6667M33.9999 22.6667C33.9999 21.1939 30.7167 20 26.6666 20C22.6165 20 19.3333 21.1939 19.3333 22.6667M33.9999 22.6667V24.6667M19.3333 22.6667V38.6667C19.3333 40.1394 22.6165 41.3333 26.6666 41.3333M26.6666 30.6667C26.4419 30.6667 26.2195 30.663 25.9999 30.6558C22.2623 30.5333 19.3333 29.391 19.3333 28M26.6666 36C22.6165 36 19.3333 34.8061 19.3333 33.3333M45.9999 31.3333C45.9999 32.8061 42.7167 34 38.6666 34C34.6165 34 31.3333 32.8061 31.3333 31.3333M45.9999 31.3333C45.9999 29.8606 42.7167 28.6667 38.6666 28.6667C34.6165 28.6667 31.3333 29.8606 31.3333 31.3333M45.9999 31.3333V41.3333C45.9999 42.8061 42.7167 44 38.6666 44C34.6165 44 31.3333 42.8061 31.3333 41.3333V31.3333M45.9999 36.3333C45.9999 37.8061 42.7167 39 38.6666 39C34.6165 39 31.3333 37.8061 31.3333 36.3333" stroke="white" stroke-width="2" stroke-linecap="round" stroke-linejoin="round"/>
</svg>
