<svg width="64" height="64" viewBox="0 0 64 64" fill="none" xmlns="http://www.w3.org/2000/svg">
<rect width="64" height="64" rx="12" fill="#4B47FF"/>
<path d="M20.0001 37.3333V25.5999C20.0001 24.1064 20.0001 23.3597 20.2907 22.7893C20.5464 22.2875 20.9543 21.8796 21.4561 21.6239C22.0265 21.3333 22.7733 21.3333 24.2667 21.3333H39.7334C41.2269 21.3333 41.9736 21.3333 42.5441 21.6239C43.0458 21.8796 43.4538 22.2875 43.7094 22.7893C44.0001 23.3597 44.0001 24.1064 44.0001 25.5999V37.3333H36.8837C36.5576 37.3333 36.3946 37.3333 36.2411 37.3701C36.1051 37.4028 35.975 37.4566 35.8557 37.5297C35.7211 37.6122 35.6058 37.7275 35.3752 37.9581L35.2916 38.0417C35.061 38.2723 34.9457 38.3876 34.8111 38.4701C34.6918 38.5432 34.5618 38.5971 34.4257 38.6297C34.2723 38.6666 34.1092 38.6666 33.7831 38.6666H30.2171C29.8909 38.6666 29.7279 38.6666 29.5744 38.6297C29.4384 38.5971 29.3083 38.5432 29.189 38.4701C29.0545 38.3876 28.9392 38.2723 28.7086 38.0417L28.6249 37.9581C28.3943 37.7275 28.279 37.6122 28.1445 37.5297C28.0252 37.4566 27.8951 37.4028 27.7591 37.3701C27.6056 37.3333 27.4425 37.3333 27.1164 37.3333H20.0001ZM20.0001 37.3333C19.2637 37.3333 18.6667 37.9302 18.6667 38.6666V39.111C18.6667 39.9377 18.6667 40.351 18.7576 40.6901C19.0042 41.6103 19.723 42.3291 20.6432 42.5757C20.9823 42.6666 21.3957 42.6666 22.2223 42.6666H41.7779C42.6045 42.6666 43.0178 42.6666 43.3569 42.5757C44.2772 42.3291 44.996 41.6103 45.2426 40.6901C45.3334 40.351 45.3334 39.9377 45.3334 39.111C45.3334 38.6977 45.3334 38.491 45.288 38.3215C45.1647 37.8614 44.8053 37.502 44.3452 37.3787C44.1756 37.3333 43.969 37.3333 43.5556 37.3333H42.6667" stroke="white" stroke-width="2" stroke-linecap="round" stroke-linejoin="round"/>
</svg>
