<svg width="30" height="30" viewBox="0 0 30 30" fill="none" xmlns="http://www.w3.org/2000/svg">
<path d="M14.3332 5.66667H14.9124C18.9754 5.66667 21.0069 5.66667 21.778 6.39639C22.4446 7.02716 22.74 7.95637 22.5601 8.85628C22.3519 9.89735 20.6933 11.0705 17.3762 13.4167L11.9568 17.25C8.63971 19.5962 6.98115 20.7693 6.77295 21.8104C6.59298 22.7103 6.88839 23.6395 7.55499 24.2703C8.32615 25 10.3576 25 14.4206 25H15.6665M9.6665 5.66667C9.6665 7.87581 7.87564 9.66667 5.6665 9.66667C3.45736 9.66667 1.6665 7.87581 1.6665 5.66667C1.6665 3.45753 3.45736 1.66667 5.6665 1.66667C7.87564 1.66667 9.6665 3.45753 9.6665 5.66667ZM28.3332 24.3333C28.3332 26.5425 26.5423 28.3333 24.3332 28.3333C22.124 28.3333 20.3332 26.5425 20.3332 24.3333C20.3332 22.1242 22.124 20.3333 24.3332 20.3333C26.5423 20.3333 28.3332 22.1242 28.3332 24.3333Z" stroke="#2E90FA" stroke-width="2" stroke='currentColor' stroke-linecap="round" stroke-linejoin="round"/>
</svg>
