<svg width="153" height="48" viewBox="0 0 153 48" fill="none" xmlns="http://www.w3.org/2000/svg">
<path d="M20.3864 41.2236L7.81815 40.2143C5.22568 40.0069 2.88209 38.2302 2.59865 36.2738L0.54541 21.8181L13.9571 22.8966C16.0864 23.0694 18.0083 24.5212 18.2364 26.132L20.3795 41.2236H20.3864Z" fill="white"/>
<path d="M7.66089 22.0228L8.67022 9.4545C8.87762 6.86203 10.6543 4.51844 12.6108 4.235L27.0664 2.18176L25.9879 15.5935C25.8151 17.7227 24.3633 19.6446 22.7525 19.8728L7.66089 22.0159V22.0228Z" fill="white"/>
<path d="M27.2727 7.93365L39.841 8.94299C42.4335 9.15039 44.7771 10.9271 45.0605 12.8835L47.1137 27.3391L33.702 26.2607C31.5727 26.0878 29.6509 24.6361 29.4227 23.0253L27.2796 7.93365H27.2727Z" fill="white"/>
<path d="M39.7868 27.2728L38.7774 39.8411C38.57 42.4336 36.7933 44.7771 34.8369 45.0606L20.3813 47.1138L21.4598 33.7021C21.6326 31.5728 23.0844 29.651 24.6952 29.4228L39.7868 27.2797V27.2728Z" fill="white"/>
<path d="M62.2898 26.3029C60.8856 26.3029 59.7494 25.9519 58.8811 25.2498C58.0312 24.5293 57.6063 23.5778 57.6063 22.3954V21.3977C57.6063 20.2338 58.0497 19.3008 58.9365 18.5987C59.8418 17.8966 61.0242 17.5456 62.4838 17.5456H64.202C64.7193 17.5456 65.2735 17.6195 65.8648 17.7673C66.456 17.9151 66.9825 18.1091 67.4444 18.3493V16.6311C67.4444 16.0583 67.2596 15.5964 66.8901 15.2454C66.5206 14.8944 66.0403 14.7189 65.4491 14.7189H63.1212C62.5115 14.7189 62.0219 14.8667 61.6524 15.1623C61.2829 15.4394 61.0981 15.8089 61.0981 16.2708H57.9942C57.9942 14.996 58.4654 13.9706 59.4076 13.1946C60.3499 12.4187 61.5877 12.0307 63.1212 12.0307H65.4491C67.001 12.0307 68.2481 12.4556 69.1903 13.3055C70.1326 14.1369 70.6037 15.2454 70.6037 16.6311V26.0812H67.6384V24.3353C67.195 24.9265 66.6407 25.4069 65.9756 25.7764C65.3105 26.1274 64.6546 26.3029 64.008 26.3029H62.2898ZM64.202 23.8087C64.941 23.8087 65.6061 23.6055 66.1973 23.1991C66.7885 22.7741 67.2042 22.2199 67.4444 21.5363V20.8712C67.1303 20.6125 66.6869 20.4093 66.1142 20.2615C65.5414 20.0952 64.941 20.0121 64.3128 20.0121H62.5669C62.0126 20.0121 61.56 20.1506 61.209 20.4278C60.8764 20.7049 60.7101 21.0652 60.7101 21.5086V22.2845C60.7101 22.7464 60.8856 23.1159 61.2367 23.393C61.5877 23.6702 62.0496 23.8087 62.6223 23.8087H64.202Z" fill="white"/>
<path d="M72.4421 24.5293L80.174 14.9406H72.7746V12.2524H84.719V13.8043L76.987 23.393H84.5804V26.0812H72.4421V24.5293Z" fill="white"/>
<path d="M92.7339 26.0812C91.1635 26.0812 90.018 25.7302 89.2975 25.0281C88.5769 24.3261 88.2166 23.2175 88.2166 21.7026V14.996H85.7779V12.2524H88.2998V8.06772H91.4036V12.2524H95.0063V14.996H91.4036V21.5917C91.4036 22.2014 91.5237 22.6448 91.7639 22.9219C92.0041 23.1991 92.3828 23.3376 92.9002 23.3376H95.0063V26.0812H92.7339Z" fill="white"/>
<path d="M102.426 26.3029C101.299 26.3029 100.302 26.0905 99.4333 25.6655C98.5834 25.2406 97.9183 24.6401 97.438 23.8642C96.9761 23.0882 96.7451 22.1922 96.7451 21.176V17.4625C96.7451 16.3909 96.9761 15.4486 97.438 14.6357C97.9183 13.8043 98.5834 13.1669 99.4333 12.7235C100.302 12.2616 101.299 12.0307 102.426 12.0307H104.643C106.325 12.0307 107.673 12.5203 108.689 13.4995C109.706 14.4787 110.214 15.7812 110.214 17.407V20.1783H99.9321V21.176C99.9321 21.915 100.154 22.5062 100.597 22.9496C101.059 23.393 101.669 23.6148 102.426 23.6148H104.56C105.299 23.6148 105.89 23.4392 106.334 23.0882C106.796 22.7187 107.027 22.2383 107.027 21.6471H110.158C110.158 23.0513 109.641 24.1783 108.606 25.0281C107.572 25.878 106.214 26.3029 104.533 26.3029H102.426ZM107.082 17.795V17.407C107.082 16.5941 106.86 15.9382 106.417 15.4394C105.974 14.9406 105.392 14.6911 104.671 14.6911H102.426C101.669 14.6911 101.05 14.959 100.57 15.4948C100.108 16.0121 99.8767 16.6957 99.8767 17.5456V17.795H107.082Z" fill="white"/>
<path d="M117.262 26.0812C115.71 26.0812 114.574 25.7579 113.853 25.1113C113.151 24.4461 112.8 23.4023 112.8 21.9797V6.68207H115.987V21.8411C115.987 22.3769 116.098 22.7649 116.32 23.0051C116.542 23.2268 116.911 23.3376 117.428 23.3376H118.759V26.0812H117.262Z" fill="white"/>
<path d="M125.551 26.3029C123.852 26.3029 122.484 25.8133 121.45 24.8341C120.434 23.8549 119.926 22.5617 119.926 20.9543V17.4625C119.926 16.3909 120.157 15.4486 120.618 14.6357C121.08 13.8043 121.736 13.1669 122.586 12.7235C123.436 12.2616 124.415 12.0307 125.524 12.0307H127.741C129.33 12.0307 130.604 12.4926 131.565 13.4163C132.544 14.3216 133.034 15.5225 133.034 17.019H129.902C129.902 16.3539 129.699 15.8181 129.293 15.4117C128.905 14.9868 128.387 14.7743 127.741 14.7743H125.551C124.831 14.7743 124.24 15.0422 123.778 15.578C123.334 16.1138 123.113 16.8066 123.113 17.6564V20.7603C123.113 21.5917 123.334 22.2661 123.778 22.7834C124.24 23.3007 124.84 23.5593 125.579 23.5593H127.768C128.452 23.5593 128.997 23.3099 129.403 22.8111C129.828 22.3122 130.041 21.6656 130.041 20.8712H133.172C133.172 22.497 132.674 23.8087 131.676 24.8064C130.697 25.8041 129.394 26.3029 127.768 26.3029H125.551Z" fill="white"/>
<path d="M140.593 26.3029C138.893 26.3029 137.526 25.8133 136.491 24.8341C135.457 23.8365 134.939 22.5247 134.939 20.8989V17.4625C134.939 16.3909 135.17 15.4486 135.632 14.6357C136.113 13.8043 136.778 13.1669 137.628 12.7235C138.496 12.2616 139.494 12.0307 140.621 12.0307H143.059C144.186 12.0307 145.175 12.2616 146.025 12.7235C146.893 13.1669 147.558 13.8043 148.02 14.6357C148.5 15.4486 148.74 16.3909 148.74 17.4625V20.8989C148.74 22.5247 148.214 23.8365 147.161 24.8341C146.126 25.8133 144.741 26.3029 143.004 26.3029H140.593ZM142.976 23.5593C143.752 23.5593 144.371 23.3007 144.833 22.7834C145.313 22.2476 145.553 21.5548 145.553 20.7049V17.6287C145.553 16.7789 145.323 16.0953 144.861 15.578C144.399 15.0422 143.78 14.7743 143.004 14.7743H140.676C139.9 14.7743 139.281 15.0422 138.819 15.578C138.357 16.0953 138.126 16.7789 138.126 17.6287V20.7049C138.126 21.5548 138.357 22.2476 138.819 22.7834C139.281 23.3007 139.882 23.5593 140.621 23.5593H142.976Z" fill="white"/>
<path d="M60.1656 38.1615C59.7729 38.1615 59.4486 38.0544 59.1927 37.8402C58.9369 37.6319 58.794 37.3552 58.7643 37.0101H59.4069C59.4307 37.1886 59.5111 37.3314 59.6479 37.4385C59.7907 37.5516 59.9633 37.6081 60.1656 37.6081H60.9064C61.2159 37.6081 61.4539 37.504 61.6205 37.2957C61.7931 37.0934 61.8793 36.8078 61.8793 36.4389V35.7516C61.7484 35.9301 61.5759 36.0759 61.3617 36.1889C61.1534 36.2961 60.9511 36.3496 60.7547 36.3496H60.1031C59.7997 36.3496 59.5289 36.2782 59.2909 36.1354C59.0529 35.9926 58.8684 35.7932 58.7375 35.5374C58.6066 35.2815 58.5412 34.984 58.5412 34.6448V33.6005C58.5412 33.0709 58.6929 32.6425 58.9964 32.3152C59.3058 31.988 59.7104 31.8243 60.2102 31.8243H60.835C61.0255 31.8243 61.2218 31.8779 61.4241 31.985C61.6264 32.0921 61.7841 32.2289 61.8972 32.3956V31.8957H62.522V36.4389C62.522 36.9804 62.3792 37.4028 62.0936 37.7063C61.8079 38.0098 61.4122 38.1615 60.9064 38.1615H60.1656ZM60.7547 35.7784C61.0522 35.7784 61.3051 35.6623 61.5134 35.4303C61.7276 35.1923 61.8496 34.8918 61.8793 34.5288V33.4309C61.8555 33.1275 61.7425 32.8805 61.5402 32.6901C61.3438 32.4937 61.1088 32.3956 60.835 32.3956H60.2281C59.9127 32.3956 59.6598 32.5056 59.4694 32.7258C59.279 32.946 59.1838 33.2375 59.1838 33.6005V34.6448C59.1838 34.978 59.2701 35.2518 59.4426 35.466C59.6212 35.6742 59.8473 35.7784 60.121 35.7784H60.7547ZM63.5228 31.8957H64.1476V32.583C64.2666 32.3747 64.4451 32.2051 64.6831 32.0742C64.9271 31.9433 65.18 31.8779 65.4418 31.8779H65.8345V32.458H65.4418C65.0609 32.458 64.7515 32.58 64.5135 32.824C64.2814 33.062 64.1654 33.3804 64.1654 33.779V36.3496H63.5228V31.8957ZM67.6807 36.421C67.1809 36.421 66.7792 36.2663 66.4758 35.9569C66.1723 35.6475 66.0205 35.2399 66.0205 34.7341V33.5113C66.0205 33.0055 66.1723 32.5979 66.4758 32.2885C66.7852 31.979 67.1928 31.8243 67.6986 31.8243H68.4305C68.9362 31.8243 69.3409 31.979 69.6443 32.2885C69.9538 32.5979 70.1085 33.0055 70.1085 33.5113V34.7341C70.1085 35.2399 69.9538 35.6475 69.6443 35.9569C69.3349 36.2663 68.9243 36.421 68.4126 36.421H67.6807ZM68.4126 35.8498C68.7339 35.8498 68.9898 35.7486 69.1802 35.5463C69.3706 35.338 69.4658 35.0673 69.4658 34.7341V33.5113C69.4658 33.178 69.3706 32.9103 69.1802 32.708C68.9898 32.4997 68.7399 32.3956 68.4305 32.3956H67.6986C67.3891 32.3956 67.1392 32.4997 66.9488 32.708C66.7584 32.9103 66.6632 33.178 66.6632 33.5113V34.7341C66.6632 35.0732 66.7554 35.344 66.9399 35.5463C67.1243 35.7486 67.3713 35.8498 67.6807 35.8498H68.4126ZM72.2623 36.421C71.8518 36.421 71.5185 36.2812 71.2627 36.0015C71.0068 35.7218 70.8789 35.3559 70.8789 34.9037V31.8957H71.5215V34.9215C71.5215 35.2012 71.5899 35.4273 71.7268 35.5999C71.8637 35.7665 72.0422 35.8498 72.2623 35.8498H72.8157C73.0894 35.8498 73.3423 35.7397 73.5744 35.5195C73.8065 35.2994 73.9552 35.0227 74.0207 34.6894V31.8957H74.6633V36.3496H74.0385V35.6713C73.9017 35.8855 73.7202 36.064 73.4941 36.2068C73.268 36.3496 73.0478 36.421 72.8336 36.421H72.2623ZM75.6658 31.8957H76.2906V32.5027C76.4155 32.3004 76.5792 32.1367 76.7815 32.0118C76.9898 31.8868 77.198 31.8243 77.4063 31.8243H78.0489C78.525 31.8243 78.9088 31.9761 79.2003 32.2795C79.4979 32.583 79.6466 32.9847 79.6466 33.4845V34.5823C79.6466 35.1357 79.4949 35.582 79.1914 35.9212C78.8939 36.2544 78.4982 36.421 78.0043 36.421H77.3617C77.1772 36.421 76.9838 36.3704 76.7815 36.2693C76.5792 36.1622 76.4215 36.0253 76.3084 35.8587V38.1258H75.6658V31.8957ZM77.9865 35.8498C78.2959 35.8498 78.5428 35.7337 78.7273 35.5017C78.9117 35.2696 79.004 34.9632 79.004 34.5823V33.4845C79.004 33.1572 78.9147 32.8954 78.7362 32.699C78.5577 32.4967 78.3227 32.3956 78.0311 32.3956H77.4063C77.1564 32.3956 76.9303 32.4937 76.7279 32.6901C76.5256 32.8805 76.3858 33.1275 76.3084 33.4309V34.7698C76.3501 35.0851 76.4721 35.344 76.6744 35.5463C76.8767 35.7486 77.1177 35.8498 77.3974 35.8498H77.9865Z" fill="white"/>
</svg>
