<svg width="80" height="80" viewBox="0 0 80 80" fill="none" xmlns="http://www.w3.org/2000/svg">
<g filter="url(#filter0_d_13642_536)">
<rect x="16" width="48" height="48" rx="24" fill="#4936F5"/>
<path d="M44 20V17L47 14L48 16L50 17L47 20H44ZM44 20L40 23.9999M50 24C50 29.5228 45.5228 34 40 34C34.4772 34 30 29.5228 30 24C30 18.4772 34.4772 14 40 14M45 24C45 26.7614 42.7614 29 40 29C37.2386 29 35 26.7614 35 24C35 21.2386 37.2386 19 40 19" stroke="white" stroke-width="1.66667" stroke-linecap="round" stroke-linejoin="round"/>
</g>
<defs>
<filter id="filter0_d_13642_536" x="0" y="0" width="80" height="80" filterUnits="userSpaceOnUse" color-interpolation-filters="sRGB">
<feFlood flood-opacity="0" result="BackgroundImageFix"/>
<feColorMatrix in="SourceAlpha" type="matrix" values="0 0 0 0 0 0 0 0 0 0 0 0 0 0 0 0 0 0 127 0" result="hardAlpha"/>
<feMorphology radius="8" operator="erode" in="SourceAlpha" result="effect1_dropShadow_13642_536"/>
<feOffset dy="16"/>
<feGaussianBlur stdDeviation="12"/>
<feComposite in2="hardAlpha" operator="out"/>
<feColorMatrix type="matrix" values="0 0 0 0 0.295652 0 0 0 0 0.28 0 0 0 0 1 0 0 0 0.48 0"/>
<feBlend mode="normal" in2="BackgroundImageFix" result="effect1_dropShadow_13642_536"/>
<feBlend mode="normal" in="SourceGraphic" in2="effect1_dropShadow_13642_536" result="shape"/>
</filter>
</defs>
</svg>
