<svg width="153" height="48" viewBox="0 0 153 48" fill="none" xmlns="http://www.w3.org/2000/svg">
<path d="M20.3864 41.2237L7.81815 40.2144C5.22568 40.007 2.88209 38.2303 2.59865 36.2738L0.54541 21.8182L13.9571 22.8967C16.0864 23.0695 18.0083 24.5213 18.2364 26.1321L20.3795 41.2237H20.3864Z" fill="#B3BAFF"/>
<path d="M7.66064 22.0229L8.66998 9.45456C8.87738 6.86209 10.6541 4.5185 12.6105 4.23506L27.0661 2.18182L25.9877 15.5935C25.8148 17.7228 24.3631 19.6447 22.7523 19.8728L7.66064 22.0159V22.0229Z" fill="#4B47FF"/>
<path d="M27.2725 7.93372L39.8407 8.94305C42.4332 9.15045 44.7768 10.9272 45.0603 12.8836L47.1135 27.3392L33.7018 26.2607C31.5725 26.0879 29.6506 24.6361 29.4225 23.0253L27.2794 7.93372H27.2725Z" fill="#B3BAFF"/>
<path d="M39.7868 27.2729L38.7775 39.8411C38.5701 42.4336 36.7934 44.7772 34.837 45.0607L20.3813 47.1139L21.4598 33.7022C21.6326 31.5729 23.0844 29.651 24.6952 29.4229L39.7868 27.2798V27.2729Z" fill="#4B47FF"/>
<path d="M62.29 26.303C60.8858 26.303 59.7496 25.952 58.8812 25.2499C58.0314 24.5293 57.6064 23.5779 57.6064 22.3954V21.3978C57.6064 20.2338 58.0499 19.3008 58.9367 18.5988C59.842 17.8967 61.0244 17.5457 62.4839 17.5457H64.2022C64.7195 17.5457 65.2737 17.6196 65.8649 17.7674C66.4562 17.9152 66.9827 18.1092 67.4446 18.3493V16.6311C67.4446 16.0584 67.2598 15.5965 66.8903 15.2455C66.5208 14.8944 66.0405 14.7189 65.4492 14.7189H63.1213C62.5117 14.7189 62.0221 14.8667 61.6526 15.1623C61.283 15.4395 61.0983 15.809 61.0983 16.2709H57.9944C57.9944 14.9961 58.4656 13.9707 59.4078 13.1947C60.35 12.4187 61.5879 12.0308 63.1213 12.0308H65.4492C67.0012 12.0308 68.2483 12.4557 69.1905 13.3056C70.1328 14.1369 70.6039 15.2455 70.6039 16.6311V26.0813H67.6386V24.3354C67.1952 24.9266 66.6409 25.4069 65.9758 25.7764C65.3107 26.1275 64.6548 26.303 64.0082 26.303H62.29ZM64.2022 23.8088C64.9412 23.8088 65.6063 23.6056 66.1975 23.1991C66.7887 22.7742 67.2044 22.2199 67.4446 21.5363V20.8712C67.1305 20.6126 66.6871 20.4093 66.1144 20.2615C65.5416 20.0953 64.9412 20.0121 64.313 20.0121H62.5671C62.0128 20.0121 61.5602 20.1507 61.2091 20.4278C60.8766 20.7049 60.7103 21.0652 60.7103 21.5086V22.2846C60.7103 22.7465 60.8858 23.116 61.2369 23.3931C61.5879 23.6702 62.0498 23.8088 62.6225 23.8088H64.2022Z" fill="black"/>
<path d="M72.4422 24.5293L80.1742 14.9406H72.7748V12.2525H84.7191V13.8044L76.9872 23.3931H84.5806V26.0813H72.4422V24.5293Z" fill="black"/>
<path d="M92.7341 26.0813C91.1637 26.0813 90.0182 25.7302 89.2976 25.0282C88.5771 24.3261 88.2168 23.2176 88.2168 21.7026V14.9961H85.7781V12.2525H88.3V8.06778H91.4038V12.2525H95.0065V14.9961H91.4038V21.5918C91.4038 22.2014 91.5239 22.6449 91.7641 22.922C92.0043 23.1991 92.383 23.3377 92.9003 23.3377H95.0065V26.0813H92.7341Z" fill="black"/>
<path d="M102.426 26.303C101.299 26.303 100.302 26.0905 99.4335 25.6656C98.5836 25.2406 97.9185 24.6402 97.4381 23.8642C96.9762 23.0883 96.7453 22.1922 96.7453 21.1761V17.4625C96.7453 16.3909 96.9762 15.4487 97.4381 14.6358C97.9185 13.8044 98.5836 13.167 99.4335 12.7236C100.302 12.2617 101.299 12.0308 102.426 12.0308H104.644C106.325 12.0308 107.673 12.5203 108.69 13.4995C109.706 14.4787 110.214 15.7813 110.214 17.4071V20.1784H99.9323V21.1761C99.9323 21.9151 100.154 22.5063 100.597 22.9497C101.059 23.3931 101.669 23.6148 102.426 23.6148H104.56C105.299 23.6148 105.891 23.4393 106.334 23.0883C106.796 22.7188 107.027 22.2384 107.027 21.6472H110.158C110.158 23.0513 109.641 24.1783 108.607 25.0282C107.572 25.878 106.214 26.303 104.533 26.303H102.426ZM107.082 17.7951V17.4071C107.082 16.5942 106.861 15.9383 106.417 15.4395C105.974 14.9406 105.392 14.6912 104.671 14.6912H102.426C101.669 14.6912 101.05 14.9591 100.57 15.4949C100.108 16.0122 99.8769 16.6958 99.8769 17.5457V17.7951H107.082Z" fill="black"/>
<path d="M117.262 26.0813C115.71 26.0813 114.574 25.758 113.854 25.1113C113.152 24.4462 112.8 23.4023 112.8 21.9797V6.68213H115.987V21.8412C115.987 22.377 116.098 22.7649 116.32 23.0051C116.542 23.2268 116.911 23.3377 117.429 23.3377H118.759V26.0813H117.262Z" fill="black"/>
<path d="M125.552 26.303C123.852 26.303 122.485 25.8134 121.45 24.8342C120.434 23.855 119.926 22.5617 119.926 20.9544V17.4625C119.926 16.3909 120.157 15.4487 120.619 14.6358C121.08 13.8044 121.736 13.167 122.586 12.7236C123.436 12.2617 124.415 12.0308 125.524 12.0308H127.741C129.33 12.0308 130.605 12.4926 131.565 13.4164C132.544 14.3217 133.034 15.5226 133.034 17.0191H129.902C129.902 16.354 129.699 15.8182 129.293 15.4117C128.905 14.9868 128.387 14.7743 127.741 14.7743H125.552C124.831 14.7743 124.24 15.0422 123.778 15.578C123.334 16.1138 123.113 16.8066 123.113 17.6565V20.7604C123.113 21.5918 123.334 22.2661 123.778 22.7834C124.24 23.3007 124.84 23.5594 125.579 23.5594H127.769C128.452 23.5594 128.997 23.31 129.404 22.8111C129.829 22.3123 130.041 21.6657 130.041 20.8712H133.173C133.173 22.4971 132.674 23.8088 131.676 24.8065C130.697 25.8041 129.394 26.303 127.769 26.303H125.552Z" fill="black"/>
<path d="M140.593 26.303C138.893 26.303 137.526 25.8134 136.491 24.8342C135.457 23.8365 134.94 22.5248 134.94 20.8989V17.4625C134.94 16.3909 135.17 15.4487 135.632 14.6358C136.113 13.8044 136.778 13.167 137.628 12.7236C138.496 12.2617 139.494 12.0308 140.621 12.0308H143.059C144.186 12.0308 145.175 12.2617 146.025 12.7236C146.893 13.167 147.558 13.8044 148.02 14.6358C148.5 15.4487 148.741 16.3909 148.741 17.4625V20.8989C148.741 22.5248 148.214 23.8365 147.161 24.8342C146.126 25.8134 144.741 26.303 143.004 26.303H140.593ZM142.976 23.5594C143.752 23.5594 144.371 23.3007 144.833 22.7834C145.313 22.2476 145.554 21.5548 145.554 20.7049V17.6288C145.554 16.7789 145.323 16.0953 144.861 15.578C144.399 15.0422 143.78 14.7743 143.004 14.7743H140.676C139.9 14.7743 139.281 15.0422 138.819 15.578C138.357 16.0953 138.127 16.7789 138.127 17.6288V20.7049C138.127 21.5548 138.357 22.2476 138.819 22.7834C139.281 23.3007 139.882 23.5594 140.621 23.5594H142.976Z" fill="black"/>
<path d="M60.1658 38.1615C59.7731 38.1615 59.4488 38.0544 59.1929 37.8402C58.937 37.632 58.7942 37.3553 58.7645 37.0101H59.4071C59.4309 37.1886 59.5113 37.3315 59.6481 37.4386C59.7909 37.5516 59.9635 37.6082 60.1658 37.6082H60.9066C61.216 37.6082 61.4541 37.504 61.6207 37.2958C61.7932 37.0934 61.8795 36.8078 61.8795 36.4389V35.7516C61.7486 35.9301 61.576 36.0759 61.3618 36.189C61.1536 36.2961 60.9513 36.3496 60.7549 36.3496H60.1033C59.7999 36.3496 59.5291 36.2782 59.2911 36.1354C59.0531 35.9926 58.8686 35.7933 58.7377 35.5374C58.6068 35.2815 58.5413 34.984 58.5413 34.6448V33.6005C58.5413 33.071 58.6931 32.6425 58.9965 32.3153C59.306 31.988 59.7106 31.8244 60.2104 31.8244H60.8352C61.0256 31.8244 61.222 31.8779 61.4243 31.985C61.6266 32.0921 61.7843 32.229 61.8974 32.3956V31.8958H62.5222V36.4389C62.5222 36.9804 62.3794 37.4029 62.0937 37.7063C61.8081 38.0098 61.4124 38.1615 60.9066 38.1615H60.1658ZM60.7549 35.7784C61.0524 35.7784 61.3053 35.6624 61.5136 35.4303C61.7278 35.1923 61.8498 34.8918 61.8795 34.5288V33.431C61.8557 33.1275 61.7427 32.8805 61.5403 32.6901C61.344 32.4938 61.1089 32.3956 60.8352 32.3956H60.2283C59.9129 32.3956 59.66 32.5057 59.4696 32.7258C59.2792 32.946 59.184 33.2376 59.184 33.6005V34.6448C59.184 34.9781 59.2703 35.2518 59.4428 35.466C59.6213 35.6743 59.8475 35.7784 60.1212 35.7784H60.7549ZM63.5229 31.8958H64.1477V32.583C64.2668 32.3748 64.4453 32.2052 64.6833 32.0743C64.9272 31.9434 65.1801 31.8779 65.442 31.8779H65.8347V32.4581H65.442C65.0611 32.4581 64.7517 32.5801 64.5137 32.824C64.2816 33.062 64.1656 33.3804 64.1656 33.7791V36.3496H63.5229V31.8958ZM67.6809 36.421C67.1811 36.421 66.7794 36.2663 66.4759 35.9569C66.1725 35.6475 66.0207 35.2399 66.0207 34.7341V33.5113C66.0207 33.0055 66.1725 32.5979 66.4759 32.2885C66.7854 31.9791 67.193 31.8244 67.6987 31.8244H68.4306C68.9364 31.8244 69.3411 31.9791 69.6445 32.2885C69.954 32.5979 70.1087 33.0055 70.1087 33.5113V34.7341C70.1087 35.2399 69.954 35.6475 69.6445 35.9569C69.3351 36.2663 68.9245 36.421 68.4128 36.421H67.6809ZM68.4128 35.8498C68.7341 35.8498 68.99 35.7486 69.1804 35.5463C69.3708 35.3381 69.466 35.0673 69.466 34.7341V33.5113C69.466 33.1781 69.3708 32.9103 69.1804 32.708C68.99 32.4997 68.7401 32.3956 68.4306 32.3956H67.6987C67.3893 32.3956 67.1394 32.4997 66.949 32.708C66.7586 32.9103 66.6634 33.1781 66.6634 33.5113V34.7341C66.6634 35.0733 66.7556 35.344 66.9401 35.5463C67.1245 35.7486 67.3715 35.8498 67.6809 35.8498H68.4128ZM72.2625 36.421C71.8519 36.421 71.5187 36.2812 71.2629 36.0015C71.007 35.7219 70.8791 35.3559 70.8791 34.9037V31.8958H71.5217V34.9215C71.5217 35.2012 71.5901 35.4273 71.727 35.5999C71.8638 35.7665 72.0424 35.8498 72.2625 35.8498H72.8159C73.0896 35.8498 73.3425 35.7397 73.5746 35.5196C73.8067 35.2994 73.9554 35.0227 74.0209 34.6895V31.8958H74.6635V36.3496H74.0387V35.6713C73.9019 35.8855 73.7204 36.064 73.4943 36.2068C73.2681 36.3496 73.048 36.421 72.8338 36.421H72.2625ZM75.666 31.8958H76.2908V32.5027C76.4157 32.3004 76.5794 32.1367 76.7817 32.0118C76.9899 31.8868 77.1982 31.8244 77.4065 31.8244H78.0491C78.5251 31.8244 78.909 31.9761 79.2005 32.2796C79.498 32.583 79.6468 32.9847 79.6468 33.4845V34.5824C79.6468 35.1358 79.4951 35.582 79.1916 35.9212C78.8941 36.2544 78.4984 36.421 78.0045 36.421H77.3618C77.1774 36.421 76.984 36.3705 76.7817 36.2693C76.5794 36.1622 76.4217 36.0253 76.3086 35.8587V38.1258H75.666V31.8958ZM77.9866 35.8498C78.2961 35.8498 78.543 35.7338 78.7275 35.5017C78.9119 35.2696 79.0042 34.9632 79.0042 34.5824V33.4845C79.0042 33.1572 78.9149 32.8954 78.7364 32.6991C78.5579 32.4967 78.3228 32.3956 78.0313 32.3956H77.4065C77.1566 32.3956 76.9304 32.4938 76.7281 32.6901C76.5258 32.8805 76.386 33.1275 76.3086 33.431V34.7698C76.3503 35.0852 76.4723 35.344 76.6746 35.5463C76.8769 35.7486 77.1179 35.8498 77.3975 35.8498H77.9866Z" fill="black"/>
</svg>
