<svg width="24" height="24" viewBox="0 0 24 24" fill="none" xmlns="http://www.w3.org/2000/svg">
<path d="M2.40039 4C2.40039 1.79086 4.19125 0 6.40039 0H14.4004L21.6004 7.2V20C21.6004 22.2091 19.8095 24 17.6004 24H6.40039C4.19125 24 2.40039 22.2091 2.40039 20V4Z" fill="#D92D20"/>
<path opacity="0.3" d="M14.4004 0L21.6004 7.2H18.4004C16.1913 7.2 14.4004 5.40914 14.4004 3.2V0Z" fill="white"/>
<path d="M3.74946 22.8V16.2546H6.33185C6.82829 16.2546 7.25123 16.3494 7.60067 16.539C7.9501 16.7265 8.21643 16.9875 8.39967 17.3221C8.58504 17.6545 8.67773 18.038 8.67773 18.4726C8.67773 18.9073 8.58398 19.2908 8.39648 19.6232C8.20898 19.9556 7.93731 20.2145 7.58149 20.3998C7.2278 20.5852 6.79953 20.6779 6.29669 20.6779H4.65074V19.5689H6.07297C6.3393 19.5689 6.55876 19.5231 6.73135 19.4314C6.90606 19.3377 7.03604 19.2088 7.12126 19.0447C7.20862 18.8785 7.2523 18.6878 7.2523 18.4726C7.2523 18.2553 7.20862 18.0657 7.12126 17.9037C7.03604 17.7397 6.90606 17.6129 6.73135 17.5234C6.55663 17.4318 6.33504 17.386 6.06658 17.386H5.13334V22.8H3.74946ZM11.8969 22.8H9.57661V16.2546H11.9161C12.5745 16.2546 13.1412 16.3856 13.6164 16.6477C14.0915 16.9076 14.4569 17.2816 14.7126 17.7695C14.9704 18.2574 15.0993 18.8412 15.0993 19.5209C15.0993 20.2027 14.9704 20.7887 14.7126 21.2787C14.4569 21.7688 14.0894 22.1449 13.61 22.4069C13.1327 22.669 12.5617 22.8 11.8969 22.8ZM10.9605 21.6143H11.8394C12.2485 21.6143 12.5926 21.5419 12.8717 21.397C13.153 21.25 13.3639 21.0231 13.5045 20.7162C13.6473 20.4073 13.7187 20.0089 13.7187 19.5209C13.7187 19.0373 13.6473 18.642 13.5045 18.3352C13.3639 18.0284 13.154 17.8025 12.8749 17.6576C12.5958 17.5128 12.2517 17.4403 11.8426 17.4403H10.9605V21.6143ZM16.1245 22.8V16.2546H20.4583V17.3956H17.5083V18.9552H20.1706V20.0962H17.5083V22.8H16.1245Z" fill="white"/>
</svg>
