<svg width="64" height="64" viewBox="0 0 64 64" fill="none" xmlns="http://www.w3.org/2000/svg">
<rect width="64" height="64" rx="12" fill="#4B47FF"/>
<path d="M37.3334 20.6237C39.309 21.6055 40.6667 23.6442 40.6667 26C40.6667 28.3558 39.309 30.3945 37.3334 31.3763M40.0001 38.3552C42.0154 39.2671 43.8301 40.7533 45.3334 42.6667M18.6667 42.6667C21.2621 39.3634 24.7857 37.3333 28.6667 37.3333C32.5478 37.3333 36.0714 39.3634 38.6667 42.6667M34.6667 26C34.6667 29.3137 31.9805 32 28.6667 32C25.353 32 22.6667 29.3137 22.6667 26C22.6667 22.6863 25.353 20 28.6667 20C31.9805 20 34.6667 22.6863 34.6667 26Z" stroke="white" stroke-width="2" stroke-linecap="round" stroke-linejoin="round"/>
</svg>
