<svg width="28" height="28" viewBox="0 0 28 28" fill="none" xmlns="http://www.w3.org/2000/svg">
<path d="M16.3919 6.99998C17.5314 7.22231 18.5787 7.77961 19.3997 8.60057C20.2206 9.42153 20.7779 10.4688 21.0003 11.6083M16.3919 2.33331C18.7594 2.59632 20.9671 3.65652 22.6525 5.33982C24.338 7.02313 25.4009 9.22949 25.6669 11.5966M11.9317 16.1736C10.5299 14.7717 9.42297 13.1866 8.61097 11.4954C8.54113 11.3499 8.50621 11.2772 8.47938 11.1852C8.38403 10.8581 8.45252 10.4565 8.65086 10.1795C8.70668 10.1015 8.77336 10.0348 8.90673 9.90146C9.3146 9.49358 9.51854 9.28965 9.65187 9.08457C10.1547 8.3112 10.1547 7.31419 9.65187 6.54082C9.51854 6.33574 9.3146 6.13181 8.90672 5.72393L8.67938 5.49658C8.05936 4.87657 7.74935 4.56656 7.41641 4.39816C6.75425 4.06324 5.97228 4.06324 5.31012 4.39816C4.97718 4.56656 4.66717 4.87657 4.04715 5.49658L3.86325 5.68049C3.24535 6.29838 2.93641 6.60733 2.70045 7.02737C2.43863 7.49346 2.25037 8.21737 2.25196 8.75196C2.2534 9.23373 2.34685 9.56299 2.53376 10.2215C3.53822 13.7605 5.43344 17.0999 8.21942 19.8859C11.0054 22.6718 14.3448 24.5671 17.8838 25.5715C18.5423 25.7584 18.8716 25.8519 19.3533 25.8533C19.8879 25.8549 20.6118 25.6667 21.0779 25.4048C21.498 25.1689 21.8069 24.8599 22.4248 24.242L22.6087 24.0581C23.2287 23.4381 23.5387 23.1281 23.7071 22.7952C24.042 22.133 24.042 21.351 23.7071 20.6889C23.5387 20.3559 23.2287 20.0459 22.6087 19.4259L22.3814 19.1986C21.9735 18.7907 21.7695 18.5868 21.5645 18.4534C20.7911 17.9506 19.7941 17.9506 19.0207 18.4534C18.8156 18.5868 18.6117 18.7907 18.2038 19.1986C18.0705 19.3319 18.0038 19.3986 17.9258 19.4544C17.6488 19.6528 17.2472 19.7213 16.9201 19.6259C16.8281 19.5991 16.7553 19.5642 16.6099 19.4943C14.9187 18.6823 13.3336 17.5754 11.9317 16.1736Z" stroke="#4B47FF" stroke-width="2" stroke-linecap="round" stroke-linejoin="round"/>
</svg>
