<svg width="20" height="20" viewBox="0 0 20 20" fill="none" xmlns="http://www.w3.org/2000/svg">
<g clip-path="url(#clip0_13760_4609)">
<path d="M10 20C15.5228 20 20 15.5228 20 10C20 4.47715 15.5228 0 10 0C4.47715 0 0 4.47715 0 10C0 15.5228 4.47715 20 10 20Z" fill="#F0F0F0"/>
<path d="M19.3783 13.4778C19.7802 12.3945 20.0002 11.2228 20.0002 9.9996C20.0002 8.7764 19.7802 7.60468 19.3783 6.52136H0.622236C0.220283 7.60468 0.000244141 8.7764 0.000244141 9.9996C0.000244141 11.2228 0.220283 12.3945 0.622236 13.4778L10.0002 14.3474L19.3783 13.4778Z" fill="#0052B4"/>
<path d="M10.0003 19.9995C14.3 19.9995 17.9654 17.2858 19.3783 13.4778H0.622314C2.03524 17.2858 5.70067 19.9995 10.0003 19.9995Z" fill="#D80027"/>
</g>
<defs>
<clipPath id="clip0_13760_4609">
<rect width="20" height="20" fill="white"/>
</clipPath>
</defs>
</svg>
