<svg width="64" height="64" viewBox="0 0 64 64" fill="none" xmlns="http://www.w3.org/2000/svg">
<rect width="64" height="64" rx="12" fill="#4B47FF"/>
<path d="M18.667 31.9999L31.5233 38.4281C31.6982 38.5156 31.7857 38.5593 31.8774 38.5765C31.9586 38.5917 32.042 38.5917 32.1233 38.5765C32.215 38.5593 32.3024 38.5156 32.4774 38.4281L45.3337 31.9999M18.667 38.6666L31.5233 45.0948C31.6982 45.1822 31.7857 45.2259 31.8774 45.2432C31.9586 45.2584 32.042 45.2584 32.1233 45.2432C32.215 45.2259 32.3024 45.1822 32.4774 45.0948L45.3337 38.6666M18.667 25.3333L31.5233 18.9051C31.6982 18.8177 31.7857 18.7739 31.8774 18.7567C31.9586 18.7415 32.042 18.7415 32.1233 18.7567C32.215 18.7739 32.3024 18.8177 32.4774 18.9051L45.3337 25.3333L32.4774 31.7614C32.3024 31.8489 32.215 31.8926 32.1233 31.9098C32.042 31.9251 31.9586 31.9251 31.8774 31.9098C31.7857 31.8926 31.6982 31.8489 31.5233 31.7614L18.667 25.3333Z" stroke="white" stroke-width="2" stroke-linecap="round" stroke-linejoin="round"/>
</svg>
