<svg width="30" height="30" viewBox="0 0 30 30" fill="none" xmlns="http://www.w3.org/2000/svg">
<path stroke='currentColor' d="M10.9998 15L13.6665 17.6667L19.6665 11.6667M8.77819 4.0916C9.84997 4.00607 10.8675 3.58461 11.6858 2.88723C13.5955 1.25982 16.4042 1.25982 18.3139 2.88723C19.1322 3.58461 20.1497 4.00607 21.2215 4.0916C23.7226 4.29119 25.7087 6.27726 25.9082 8.77836C25.9938 9.85014 26.4152 10.8676 27.1126 11.686C28.74 13.5956 28.74 16.4044 27.1126 18.314C26.4152 19.1324 25.9938 20.1499 25.9082 21.2216C25.7087 23.7227 23.7226 25.7088 21.2215 25.9084C20.1497 25.9939 19.1322 26.4154 18.3139 27.1128C16.4042 28.7402 13.5955 28.7402 11.6858 27.1128C10.8675 26.4154 9.84997 25.9939 8.77819 25.9084C6.2771 25.7088 4.29102 23.7227 4.09143 21.2216C4.0059 20.1499 3.58445 19.1324 2.88706 18.314C1.25965 16.4044 1.25965 13.5956 2.88706 11.686C3.58445 10.8676 4.0059 9.85014 4.09143 8.77836C4.29102 6.27726 6.2771 4.29119 8.77819 4.0916Z" stroke="#17B26A" stroke-width="2" stroke-linecap="round" stroke-linejoin="round"/>
</svg>
