<svg width="64" height="64" viewBox="0 0 64 64" fill="none" xmlns="http://www.w3.org/2000/svg">
<rect width="64" height="64" rx="12" fill="#4B47FF"/>
<path d="M37.6568 23.6764C40.781 26.8006 40.781 31.8659 37.6568 34.9901M26.343 34.9901C23.2188 31.8659 23.2188 26.8006 26.343 23.6764M22.5715 38.7615C17.3645 33.5545 17.3645 25.1123 22.5715 19.9053M41.4283 19.9053C46.6353 25.1123 46.6353 33.5545 41.4283 38.7615M31.9999 32C33.4726 32 34.6666 30.8061 34.6666 29.3333C34.6666 27.8606 33.4726 26.6667 31.9999 26.6667C30.5271 26.6667 29.3332 27.8606 29.3332 29.3333C29.3332 30.8061 30.5271 32 31.9999 32ZM31.9999 32V44" stroke="white" stroke-width="2" stroke-linecap="round" stroke-linejoin="round"/>
</svg>
