<svg width="20" height="14" viewBox="0 0 20 14" fill="none" xmlns="http://www.w3.org/2000/svg">
<path d="M2.01677 7.59562C1.90328 7.41592 1.84654 7.32607 1.81477 7.18748C1.79091 7.08339 1.79091 6.91922 1.81477 6.81512C1.84654 6.67654 1.90328 6.58669 2.01677 6.40699C2.95461 4.922 5.74617 1.16797 10.0003 1.16797C14.2545 1.16797 17.0461 4.922 17.9839 6.40699C18.0974 6.58669 18.1541 6.67654 18.1859 6.81512C18.2098 6.91922 18.2098 7.08339 18.1859 7.18748C18.1541 7.32607 18.0974 7.41592 17.9839 7.59562C17.0461 9.0806 14.2545 12.8346 10.0003 12.8346C5.74617 12.8346 2.95461 9.0806 2.01677 7.59562Z" stroke="currentColor" stroke-width="1.66667" stroke-linecap="round" stroke-linejoin="round"/>
<path d="M10.0003 9.5013C11.381 9.5013 12.5003 8.38201 12.5003 7.0013C12.5003 5.62059 11.381 4.5013 10.0003 4.5013C8.61962 4.5013 7.50034 5.62059 7.50034 7.0013C7.50034 8.38201 8.61962 9.5013 10.0003 9.5013Z" stroke="currentColor" stroke-width="1.66667" stroke-linecap="round" stroke-linejoin="round"/>
</svg>
