<svg width="80" height="80" viewBox="0 0 80 80" fill="none" xmlns="http://www.w3.org/2000/svg">
<g filter="url(#filter0_d_13642_542)">
<rect x="16" width="48" height="48" rx="24" fill="#4936F5"/>
<path d="M30.4201 24.7132C30.2839 24.4975 30.2158 24.3897 30.1777 24.2234C30.1491 24.0985 30.1491 23.9015 30.1777 23.7766C30.2158 23.6103 30.2839 23.5025 30.4201 23.2868C31.5455 21.5048 34.8954 17 40.0004 17C45.1054 17 48.4553 21.5048 49.5807 23.2868C49.7169 23.5025 49.785 23.6103 49.8231 23.7766C49.8517 23.9015 49.8517 24.0985 49.8231 24.2234C49.785 24.3897 49.7169 24.4975 49.5807 24.7132C48.4553 26.4952 45.1054 31 40.0004 31C34.8954 31 31.5455 26.4952 30.4201 24.7132Z" stroke="white" stroke-width="1.66667" stroke-linecap="round" stroke-linejoin="round"/>
<path d="M40.0004 27C41.6573 27 43.0004 25.6569 43.0004 24C43.0004 22.3431 41.6573 21 40.0004 21C38.3435 21 37.0004 22.3431 37.0004 24C37.0004 25.6569 38.3435 27 40.0004 27Z" stroke="white" stroke-width="1.66667" stroke-linecap="round" stroke-linejoin="round"/>
</g>
<defs>
<filter id="filter0_d_13642_542" x="0" y="0" width="80" height="80" filterUnits="userSpaceOnUse" color-interpolation-filters="sRGB">
<feFlood flood-opacity="0" result="BackgroundImageFix"/>
<feColorMatrix in="SourceAlpha" type="matrix" values="0 0 0 0 0 0 0 0 0 0 0 0 0 0 0 0 0 0 127 0" result="hardAlpha"/>
<feMorphology radius="8" operator="erode" in="SourceAlpha" result="effect1_dropShadow_13642_542"/>
<feOffset dy="16"/>
<feGaussianBlur stdDeviation="12"/>
<feComposite in2="hardAlpha" operator="out"/>
<feColorMatrix type="matrix" values="0 0 0 0 0.295652 0 0 0 0 0.28 0 0 0 0 1 0 0 0 0.48 0"/>
<feBlend mode="normal" in2="BackgroundImageFix" result="effect1_dropShadow_13642_542"/>
<feBlend mode="normal" in="SourceGraphic" in2="effect1_dropShadow_13642_542" result="shape"/>
</filter>
</defs>
</svg>
