<svg width="32" height="32" viewBox="0 0 32 32" fill="none" xmlns="http://www.w3.org/2000/svg">
<path d="M16.0006 1.33398C7.90025 1.33398 1.33398 7.90025 1.33398 16.0007C1.33398 24.101 7.90025 30.6673 16.0006 30.6673C24.101 30.6673 30.6673 24.101 30.6673 16.0007C30.6673 7.90025 24.101 1.33398 16.0006 1.33398ZM16.0006 8.66732C16.8102 8.66732 17.4673 9.32438 17.4673 10.134C17.4673 10.9436 16.8102 11.6007 16.0006 11.6007C15.191 11.6007 14.534 10.9436 14.534 10.134C14.534 9.32438 15.191 8.66732 16.0006 8.66732ZM14.534 13.0673C14.7716 13.0673 15.8158 13.0673 16.0006 13.0673C16.9261 13.0673 17.6037 13.9018 17.4218 14.8097L16.3218 20.4007H17.4673C18.2769 20.4007 18.934 21.0577 18.934 21.8673C18.934 22.6769 18.2769 23.334 17.4673 23.334H16.0006C14.2656 23.334 13.0483 21.8277 13.3885 20.1249L14.2582 15.9097C13.5938 15.7689 13.0673 15.2409 13.0673 14.534C13.0673 13.7244 13.7244 13.0673 14.534 13.0673Z" fill="currentColor"/>
</svg>
